# xmcd
#
# Track frame offsets:
#	150
#	10878
#	25643
#	36823
#	46566
#	57096
#	68288
#	78595
#	95465
#	111602
#	129887
#	140272
#	152961
#	166299
#	178117
#
# Disc length: 2535 seconds
#
# Revision: 1
# Processed by: cddbd v1.5.2PL0 Copyright (c) Steve Scherf et al.
# Submitted via: audiograbber 1.83.01
#
DISCID=b409e50f
DTITLE=Guitar Crusher - Blast From The Past
DYEAR=2009
DGENRE=
TTITLE0=I Got To Know
TTITLE1=Cuddle Up
TTITLE2=I Once Loved You Baby
TTITLE3=Itch With Me
TTITLE4=The Monkey
TTITLE5=I Feel The Pain
TTITLE6=Since My Baby Hit The Numbers
TTITLE7=Hambone Blues
TTITLE8=I'll Catch Your Tears
TTITLE9=Going Down Slow
TTITLE10=Better Days Ahead
TTITLE11=I Can't Help It
TTITLE12=Weak For Your Love
TTITLE13=Why Oh Why
TTITLE14=What About Me
EXTD=A complete collection of Guitar Crusher recordings from the sixties.\nLabe
EXTD=l: Hotsak
EXTT0=
EXTT1=
EXTT2=
EXTT3=
EXTT4=
EXTT5=
EXTT6=
EXTT7=
EXTT8=
EXTT9=
EXTT10=
EXTT11=
EXTT12=
EXTT13=
EXTT14=
PLAYORDER=
